# Blender 4.5.4 LTS
# www.blender.org
mtllib placeholdersTurnLeftAndLongWay.mtl
o turnleftandafterrightandafterthatlongway
v 47.925583 -0.000015 -266.618744
v 46.038223 -0.000014 -234.945129
v 37.357529 -0.000014 -206.328705
v 23.260818 -0.000012 -179.955658
v 4.289864 -0.000011 -156.839508
v -18.826286 -0.000009 -137.868561
v -45.199348 -0.000006 -123.771866
v -73.815742 -0.000004 -115.091171
v -140.222519 0.000002 108.836014
v -168.838959 0.000004 100.155319
v -195.211975 0.000007 86.058640
v -218.328156 0.000009 67.087708
v -237.299072 0.000010 43.971550
v -251.395782 0.000012 17.598515
v -260.076477 0.000012 -11.017910
v -263.007568 0.000013 -40.777988
v -260.076477 0.000012 -70.538055
v -251.395782 0.000012 -99.154495
v -237.299072 0.000010 -125.527512
v -218.328156 0.000009 -148.643646
v -195.211975 0.000007 -167.614609
v -168.838959 0.000004 -181.711288
v -140.222519 0.000002 -190.391983
v -125.342484 0.000001 -191.857529
v -88.695778 -0.000003 -113.625626
v -125.342484 0.000001 110.301559
v -120.181496 0.000000 28.655970
v -133.462036 0.000001 24.627375
v -145.701416 0.000002 18.085285
v -156.429321 0.000003 9.281101
v -165.233490 0.000004 -1.446808
v -171.775574 0.000005 -13.686199
v -175.804199 0.000005 -26.966709
v -177.164490 0.000005 -40.777988
v -175.804199 0.000005 -54.589260
v -171.775574 0.000005 -67.869766
v -165.233490 0.000004 -80.109161
v -156.429321 0.000003 -90.837082
v -145.701416 0.000002 -99.641251
v -133.462036 0.000001 -106.183334
v -120.181496 0.000000 -110.211929
v -113.275856 -0.000000 -110.892090
v -113.275856 -0.000000 29.336126
v -36.460983 -0.000007 -266.618744
v -36.796227 -0.000007 -250.704742
v -40.879951 -0.000007 -237.242310
v -47.511726 -0.000006 -224.835266
v -56.436531 -0.000005 -213.960388
v -67.311333 -0.000004 -205.035583
v -79.718384 -0.000003 -198.403885
v -93.180801 -0.000002 -194.320114
v -100.181076 -0.000002 -193.630630
v -107.977570 -0.000017 29.157129
v -52.292664 -0.000014 35.549942
v -25.506363 -0.000012 43.780807
v -1.720085 -0.000010 61.501648
v 18.151764 -0.000008 83.522469
v 33.345993 -0.000007 108.996979
v 43.278336 -0.000006 136.946259
v 47.927750 -0.000006 166.296173
v -36.540787 -0.000013 376.150696
v 47.927750 -0.000006 376.270477
v -36.540787 -0.000013 170.144333
v -36.290771 -0.000013 157.043777
v -40.724136 -0.000014 144.568405
v -47.506210 -0.000014 133.197662
v -56.376152 -0.000015 123.368515
v -66.993347 -0.000016 115.458672
v -78.949593 -0.000017 113.740082
v -118.713379 -0.000018 111.912964
v 47.925583 28.059921 -266.618744
v 46.038223 28.059923 -234.945129
v 37.357529 28.059923 -206.328705
v 23.260818 28.059925 -179.955658
v 4.289864 28.059925 -156.839508
v -18.826286 28.059927 -137.868561
v -45.199348 28.059931 -123.771866
v -73.815742 28.059933 -115.091171
v -140.222519 28.059938 108.836014
v -168.838959 28.059940 100.155319
v -195.211975 28.059944 86.058640
v -218.328156 28.059946 67.087708
v -237.299072 28.059946 43.971550
v -251.395782 28.059948 17.598515
v -260.076477 28.059950 -11.017910
v -263.007568 28.059950 -40.777988
v -260.076477 28.059950 -70.538055
v -251.395782 28.059948 -99.154495
v -237.299072 28.059946 -125.527512
v -218.328156 28.059946 -148.643646
v -195.211975 28.059944 -167.614609
v -168.838959 28.059940 -181.711288
v -140.222519 28.059938 -190.391983
v -125.342484 28.059937 -191.857529
v -88.695778 28.059935 -113.625626
v -125.342484 28.059937 110.301559
v -120.181496 28.059937 28.655970
v -133.462036 28.059938 24.627375
v -145.701416 28.059938 18.085285
v -156.429321 28.059940 9.281101
v -165.233490 28.059940 -1.446808
v -171.775574 28.059940 -13.686199
v -175.804199 28.059942 -26.966709
v -177.164505 28.059942 -40.777988
v -175.804199 28.059942 -54.589260
v -171.775574 28.059940 -67.869766
v -165.233490 28.059940 -80.109161
v -156.429321 28.059940 -90.837082
v -145.701416 28.059938 -99.641251
v -133.462036 28.059938 -106.183334
v -120.181496 28.059937 -110.211929
v -113.275856 28.059937 -110.892090
v -113.275856 28.059937 29.336126
v -36.460983 28.059929 -266.618744
v -36.796227 28.059929 -250.704742
v -40.879951 28.059929 -237.242310
v -47.511734 28.059931 -224.835266
v -56.436535 28.059931 -213.960388
v -67.311333 28.059933 -205.035583
v -79.718384 28.059933 -198.403885
v -93.180801 28.059935 -194.320114
v -100.181076 28.059935 -193.630630
v -107.977570 28.059921 29.157129
v -52.292671 28.059923 35.549942
v -25.506363 28.059925 43.780807
v -1.720085 28.059927 61.501648
v 18.151764 28.059931 83.522469
v 33.345993 28.059931 108.996979
v 43.278336 28.059931 136.946259
v 47.927750 28.059931 166.296173
v -36.540787 28.059923 376.150696
v 47.927750 28.059931 376.270477
v -36.540787 28.059923 170.144333
v -36.290771 28.059923 157.043777
v -40.724136 28.059923 144.568405
v -47.506210 28.059923 133.197662
v -56.376152 28.059923 123.368515
v -66.993355 28.059921 115.458672
v -78.949593 28.059919 113.740082
v -118.713379 28.059919 111.912964
vn -0.0000 -1.0000 -0.0000
vn -0.0000 1.0000 -0.0000
vn -0.0980 -0.0000 -0.9952
vn -0.0980 -0.0000 0.9952
vn 0.8588 -0.0000 -0.5123
vn -0.0000 -0.0000 -1.0000
vn 0.2903 -0.0000 -0.9569
vn 0.2937 -0.0000 -0.9559
vn 0.5974 -0.0000 -0.8019
vn 0.4714 -0.0000 -0.8819
vn 0.9982 -0.0000 0.0595
vn 0.1141 -0.0000 -0.9935
vn 0.6344 -0.0000 -0.7730
vn 0.9569 -0.0000 0.2903
vn 0.9423 -0.0000 -0.3349
vn 0.7730 -0.0000 -0.6344
vn 0.8819 -0.0000 0.4714
vn 0.9877 -0.0000 -0.1565
vn 0.8819 -0.0000 -0.4714
vn 0.7730 -0.0000 0.6344
vn 1.0000 -0.0000 -0.0000
vn 0.9569 -0.0000 -0.2903
vn 0.6344 -0.0000 0.7730
vn -0.0014 -0.0000 1.0000
vn 0.9952 -0.0000 -0.0980
vn 0.4714 -0.0000 0.8819
vn -0.0459 -0.0000 0.9989
vn 0.9952 -0.0000 0.0980
vn 0.2903 -0.0000 0.9569
vn -0.7424 -0.0000 0.6700
vn 0.0980 -0.0000 0.9952
vn -0.1423 -0.0000 0.9898
vn -0.2903 -0.0000 0.9569
vn -0.8588 -0.0000 0.5123
vn -0.4714 -0.0000 0.8819
vn -0.5974 -0.0000 0.8019
vn -0.6344 -0.0000 0.7730
vn -1.0000 -0.0000 -0.0000
vn -0.7730 -0.0000 0.6344
vn -0.9998 -0.0000 -0.0191
vn -0.8819 -0.0000 0.4714
vn -0.9423 -0.0000 0.3349
vn -0.9569 -0.0000 0.2903
vn -0.2362 -0.0000 0.9717
vn 0.0980 -0.0000 -0.9952
vn -0.9952 -0.0000 0.0980
vn -0.0338 -0.0000 -0.9994
vn -0.0703 -0.0000 -0.9975
vn -0.9952 -0.0000 -0.0980
vn 0.1105 -0.0000 0.9939
vn -0.9569 -0.0000 -0.2903
vn -0.9998 -0.0000 -0.0211
vn -0.8819 -0.0000 -0.4714
vn -0.7730 -0.0000 -0.6344
vn -0.6344 -0.0000 -0.7730
vn -0.4714 -0.0000 -0.8819
vn -0.2903 -0.0000 -0.9569
vn 0.7424 -0.0000 -0.6700
vt 0.000000 0.000000
s 0
f 60/1/1 62/1/1 61/1/1 63/1/1 64/1/1 65/1/1 66/1/1 67/1/1 68/1/1 69/1/1 70/1/1 26/1/1 9/1/1 10/1/1 11/1/1 12/1/1 13/1/1 14/1/1 15/1/1 16/1/1 17/1/1 18/1/1 19/1/1 20/1/1 21/1/1 22/1/1 23/1/1 24/1/1 52/1/1 51/1/1 50/1/1 49/1/1 48/1/1 47/1/1 46/1/1 45/1/1 44/1/1 1/1/1 2/1/1 3/1/1 4/1/1 5/1/1 6/1/1 7/1/1 8/1/1 25/1/1 42/1/1 41/1/1 40/1/1 39/1/1 38/1/1 37/1/1 36/1/1 35/1/1 34/1/1 33/1/1 32/1/1 31/1/1 30/1/1 29/1/1 28/1/1 27/1/1 43/1/1 53/1/1 54/1/1 55/1/1 56/1/1 57/1/1 58/1/1 59/1/1
f 130/1/2 129/1/2 128/1/2 127/1/2 126/1/2 125/1/2 124/1/2 123/1/2 113/1/2 97/1/2 98/1/2 99/1/2 100/1/2 101/1/2 102/1/2 103/1/2 104/1/2 105/1/2 106/1/2 107/1/2 108/1/2 109/1/2 110/1/2 111/1/2 112/1/2 95/1/2 78/1/2 77/1/2 76/1/2 75/1/2 74/1/2 73/1/2 72/1/2 71/1/2 114/1/2 115/1/2 116/1/2 117/1/2 118/1/2 119/1/2 120/1/2 121/1/2 122/1/2 94/1/2 93/1/2 92/1/2 91/1/2 90/1/2 89/1/2 88/1/2 87/1/2 86/1/2 85/1/2 84/1/2 83/1/2 82/1/2 81/1/2 80/1/2 79/1/2 96/1/2 140/1/2 139/1/2 138/1/2 137/1/2 136/1/2 135/1/2 134/1/2 133/1/2 131/1/2 132/1/2
f 51/1/3 52/1/3 122/1/3 121/1/3
f 9/1/4 26/1/4 96/1/4 79/1/4
f 58/1/5 57/1/5 127/1/5 128/1/5
f 1/1/6 44/1/6 114/1/6 71/1/6
f 27/1/7 28/1/7 98/1/7 97/1/7
f 55/1/8 54/1/8 124/1/8 125/1/8
f 56/1/9 55/1/9 125/1/9 126/1/9
f 28/1/10 29/1/10 99/1/10 98/1/10
f 2/1/11 1/1/11 71/1/11 72/1/11
f 54/1/12 53/1/12 123/1/12 124/1/12
f 29/1/13 30/1/13 100/1/13 99/1/13
f 3/1/14 2/1/14 72/1/14 73/1/14
f 59/1/15 58/1/15 128/1/15 129/1/15
f 30/1/16 31/1/16 101/1/16 100/1/16
f 4/1/17 3/1/17 73/1/17 74/1/17
f 60/1/18 59/1/18 129/1/18 130/1/18
f 31/1/19 32/1/19 102/1/19 101/1/19
f 5/1/20 4/1/20 74/1/20 75/1/20
f 62/1/21 60/1/21 130/1/21 132/1/21
f 32/1/22 33/1/22 103/1/22 102/1/22
f 6/1/23 5/1/23 75/1/23 76/1/23
f 61/1/24 62/1/24 132/1/24 131/1/24
f 33/1/25 34/1/25 104/1/25 103/1/25
f 7/1/26 6/1/26 76/1/26 77/1/26
f 70/1/27 69/1/27 139/1/27 140/1/27
f 34/1/28 35/1/28 105/1/28 104/1/28
f 8/1/29 7/1/29 77/1/29 78/1/29
f 67/1/30 66/1/30 136/1/30 137/1/30
f 35/1/14 36/1/14 106/1/14 105/1/14
f 25/1/31 8/1/31 78/1/31 95/1/31
f 69/1/32 68/1/32 138/1/32 139/1/32
f 36/1/17 37/1/17 107/1/17 106/1/17
f 10/1/33 9/1/33 79/1/33 80/1/33
f 66/1/34 65/1/34 135/1/34 136/1/34
f 37/1/20 38/1/20 108/1/20 107/1/20
f 11/1/35 10/1/35 80/1/35 81/1/35
f 68/1/36 67/1/36 137/1/36 138/1/36
f 38/1/23 39/1/23 109/1/23 108/1/23
f 12/1/37 11/1/37 81/1/37 82/1/37
f 63/1/38 61/1/38 131/1/38 133/1/38
f 39/1/26 40/1/26 110/1/26 109/1/26
f 13/1/39 12/1/39 82/1/39 83/1/39
f 64/1/40 63/1/40 133/1/40 134/1/40
f 40/1/29 41/1/29 111/1/29 110/1/29
f 14/1/41 13/1/41 83/1/41 84/1/41
f 65/1/42 64/1/42 134/1/42 135/1/42
f 41/1/31 42/1/31 112/1/31 111/1/31
f 15/1/43 14/1/43 84/1/43 85/1/43
f 26/1/44 70/1/44 140/1/44 96/1/44
f 43/1/45 27/1/45 97/1/45 113/1/45
f 16/1/46 15/1/46 85/1/46 86/1/46
f 53/1/47 43/1/47 113/1/47 123/1/47
f 52/1/48 24/1/48 94/1/48 122/1/48
f 17/1/49 16/1/49 86/1/49 87/1/49
f 42/1/50 25/1/50 95/1/50 112/1/50
f 18/1/51 17/1/51 87/1/51 88/1/51
f 44/1/52 45/1/52 115/1/52 114/1/52
f 19/1/53 18/1/53 88/1/53 89/1/53
f 45/1/51 46/1/51 116/1/51 115/1/51
f 20/1/54 19/1/54 89/1/54 90/1/54
f 46/1/53 47/1/53 117/1/53 116/1/53
f 21/1/55 20/1/55 90/1/55 91/1/55
f 47/1/54 48/1/54 118/1/54 117/1/54
f 22/1/56 21/1/56 91/1/56 92/1/56
f 48/1/55 49/1/55 119/1/55 118/1/55
f 23/1/57 22/1/57 92/1/57 93/1/57
f 49/1/56 50/1/56 120/1/56 119/1/56
f 24/1/3 23/1/3 93/1/3 94/1/3
f 50/1/57 51/1/57 121/1/57 120/1/57
f 57/1/58 56/1/58 126/1/58 127/1/58
